<svg width="20" height="20" viewBox="0 0 20 20" fill="none" xmlns="http://www.w3.org/2000/svg">
<path d="M13.3201 5.4043C13.3201 5.30438 13.2383 5.22264 13.1384 5.22264H11.9009C11.8327 5.22264 11.7692 5.26124 11.7396 5.32255L9.81635 9.15551H9.74141L7.81812 5.32255C7.80306 5.29266 7.78003 5.26751 7.75158 5.24988C7.72313 5.23225 7.69037 5.22282 7.6569 5.22264H6.39211C6.36259 5.22264 6.33307 5.22945 6.30583 5.24535C6.21727 5.29303 6.18548 5.40429 6.23316 5.49058L8.59243 9.84127H7.29813C7.19822 9.84127 7.11647 9.92301 7.11647 10.0229V10.6383C7.11647 10.7382 7.19822 10.8199 7.29813 10.8199H9.02387V11.7055H7.29813C7.19822 11.7055 7.11647 11.7873 7.11647 11.8872V12.5025C7.11647 12.6025 7.19822 12.6842 7.29813 12.6842H9.02387V14.1238C9.02387 14.2237 9.10561 14.3055 9.20552 14.3055H10.3386C10.4385 14.3055 10.5203 14.2237 10.5203 14.1238V12.6819H12.2528C12.3527 12.6819 12.4345 12.6002 12.4345 12.5003V11.8849C12.4345 11.785 12.3527 11.7033 12.2528 11.7033H10.5203V10.8177H12.2528C12.3527 10.8177 12.4345 10.7359 12.4345 10.636V10.0207C12.4345 9.92074 12.3527 9.839 12.2528 9.839H10.9449L13.2996 5.48831C13.311 5.46333 13.3201 5.43381 13.3201 5.4043ZM1.72353 9.58695C1.76618 7.51744 2.60845 5.54482 4.07371 4.08274C4.8117 3.34476 5.67003 2.76346 6.626 2.35927C7.61603 1.94146 8.66737 1.72801 9.75049 1.72801C10.8359 1.72801 11.8872 1.93919 12.875 2.35927C13.831 2.76346 14.6893 3.34476 15.4273 4.08274C15.6543 4.30981 15.8655 4.54824 16.0608 4.79574L14.9254 5.68359C14.8984 5.70452 14.8778 5.73265 14.866 5.76475C14.8543 5.79686 14.8518 5.83163 14.8589 5.86508C14.866 5.89853 14.8824 5.92929 14.9063 5.95382C14.9301 5.97835 14.9603 5.99566 14.9936 6.00376L18.554 6.87345C18.6676 6.90069 18.7788 6.81441 18.7788 6.6986L18.797 3.0314C18.797 2.87926 18.6222 2.79298 18.5041 2.88835L17.4187 3.73759C15.6385 1.46007 12.8659 0 9.75277 0C4.42795 0 0.0976974 4.27121 5.67814e-05 9.57786C-0.000549283 9.6021 0.00370155 9.62621 0.0125589 9.64878C0.0214163 9.67134 0.034701 9.69191 0.0516301 9.70926C0.0685593 9.72661 0.0887905 9.7404 0.111131 9.74981C0.133472 9.75923 0.157471 9.76407 0.181714 9.76406H1.54414C1.64178 9.76406 1.72126 9.68459 1.72353 9.58695ZM19.3465 9.76406H17.9841C17.8865 9.76406 17.8047 9.84354 17.8024 9.94118C17.7598 12.0107 16.9175 13.9833 15.4523 15.4454C14.7211 16.1796 13.8543 16.765 12.9 17.1689C11.9099 17.5867 10.8586 17.8001 9.77547 17.8001C8.69234 17.8001 7.63873 17.5889 6.65097 17.1689C5.69669 16.765 4.8299 16.1796 4.09869 15.4454C3.87162 15.2183 3.66045 14.9799 3.46516 14.7324L4.59825 13.8445C4.6253 13.8236 4.64589 13.7955 4.65766 13.7634C4.66943 13.7313 4.6719 13.6965 4.66478 13.663C4.65766 13.6296 4.64125 13.5988 4.61743 13.5743C4.59361 13.5498 4.56335 13.5325 4.53013 13.5244L0.969651 12.6547C0.856115 12.6274 0.744851 12.7137 0.744851 12.8295L0.726685 16.5013C0.726685 16.6534 0.90153 16.7397 1.01961 16.6443L2.10501 15.7951C3.88979 18.0681 6.66233 19.5281 9.77547 19.5281C15.1003 19.5281 19.4305 15.2569 19.5282 9.95026C19.5288 9.92603 19.5245 9.90192 19.5157 9.87935C19.5068 9.85678 19.4935 9.83622 19.4766 9.81886C19.4597 9.80151 19.4394 9.78772 19.4171 9.77831C19.3948 9.7689 19.3708 9.76406 19.3465 9.76406Z" fill="white"/>
</svg>
