<svg width="17" height="21" viewBox="0 0 17 21" fill="none" xmlns="http://www.w3.org/2000/svg">
<path d="M10.1875 1H2.8375C2.35016 1 1.88279 1.19359 1.53819 1.53819C1.19359 1.88279 1 2.35016 1 2.8375V17.5375C1 18.0248 1.19359 18.4922 1.53819 18.8368C1.88279 19.1814 2.35016 19.375 2.8375 19.375H13.8625C14.3498 19.375 14.8172 19.1814 15.1618 18.8368C15.5064 18.4922 15.7 18.0248 15.7 17.5375V6.5125L10.1875 1Z" stroke="white" stroke-width="2" stroke-linecap="round" stroke-linejoin="round"/>
<path d="M12.025 14.7812H4.67505" stroke="white" stroke-width="2" stroke-linecap="round" stroke-linejoin="round"/>
<path d="M12.025 11.1063H4.67505" stroke="white" stroke-width="2" stroke-linecap="round" stroke-linejoin="round"/>
<path d="M6.51255 7.43127H5.5938H4.67505" stroke="white" stroke-width="2" stroke-linecap="round" stroke-linejoin="round"/>
<path d="M10.1875 1V6.5125H15.7" stroke="white" stroke-width="2" stroke-linecap="round" stroke-linejoin="round"/>
</svg>
