<svg width="21" height="17" viewBox="0 0 21 17" fill="none" xmlns="http://www.w3.org/2000/svg">
<path d="M17.1934 0.125C18.0869 0.125074 18.9434 0.480482 19.5752 1.1123C20.207 1.74413 20.5624 2.60062 20.5625 3.49414V12.8672C20.5625 13.7608 20.2071 14.6181 19.5752 15.25C18.9434 15.8816 18.0867 16.2363 17.1934 16.2363H3.49414C2.60078 16.2363 1.74409 15.8816 1.1123 15.25C0.480416 14.6181 0.125 13.7608 0.125 12.8672V3.49414C0.125074 2.60062 0.480482 1.74413 1.1123 1.1123C1.74413 0.480482 2.60062 0.125074 3.49414 0.125H17.1934ZM1.81738 12.8672C1.81738 13.3121 1.99401 13.7391 2.30859 14.0537C2.62308 14.368 3.04952 14.5448 3.49414 14.5449H17.1934C17.638 14.5448 18.0644 14.368 18.3789 14.0537C18.6935 13.7391 18.8701 13.3121 18.8701 12.8672V6.14258H1.81738V12.8672ZM16.1113 10.2188C16.3357 10.2188 16.5513 10.3081 16.71 10.4668C16.8684 10.6254 16.9579 10.8403 16.958 11.0645C16.958 11.2888 16.8686 11.5044 16.71 11.6631C16.5513 11.8217 16.3357 11.9111 16.1113 11.9111H13.9482C13.7241 11.911 13.5091 11.8216 13.3506 11.6631C13.1919 11.5044 13.1025 11.2888 13.1025 11.0645C13.1026 10.8402 13.192 10.6254 13.3506 10.4668C13.5091 10.3082 13.724 10.2189 13.9482 10.2188H16.1113ZM3.49414 1.81738C3.04935 1.81746 2.62311 1.99408 2.30859 2.30859C1.99408 2.62311 1.81746 3.04935 1.81738 3.49414V4.45117H18.8701V3.49414C18.87 3.04935 18.6934 2.62311 18.3789 2.30859C18.0644 1.99408 17.6381 1.81746 17.1934 1.81738H3.49414Z" fill="white" stroke="white" stroke-width="0.25"/>
</svg>
